<?xml version="1.0" encoding="UTF-8"?>
<svg id="Layer_2" data-name="Layer 2" xmlns="http://www.w3.org/2000/svg" viewBox="0 0 1584 396.58">
  <defs>
    <style>
      .cls-1 {
        fill: #c8f504;
      }

      .cls-2 {
        fill: #fff;
      }

      .cls-3 {
        fill: #1c1c1c;
      }
    </style>
  </defs>
  <g id="Livello_1" data-name="Livello 1">
    <rect class="cls-3" width="1584" height="396.58"/>
    <g>
      <g>
        <path class="cls-1" d="M383.11,163.49c-.89,0-1.65,0-2.4,0-12.14.07-24.27.17-36.41.16-2.19,0-3.02.45-3.02,2.9,0,9.65.03,19.32.03,29.09,0,2.3.63,4.02,2.31,5.67,24.15,23.83,48.22,47.73,72.39,71.54,1.02,1,2.76,1.82,4.17,1.81,18.28,0,36.56-.19,54.84-.27,1.67,0,2.06-.6,2.06-2.14-.05-12.45-.06-24.89.01-37.34.01-1.81-.5-2.32-2.35-2.31-24.27.2-48.54.34-72.81.46-10.11.05-18.9-9.47-18.74-19.53.25-16.26.1-32.53.12-48.79,0-.3-.09-.59-.2-1.28Z"/>
        <path class="cls-1" d="M383.61,121.9c0,14.18,0,27.84,0,41.58,31.14,0,62.21,0,93.48,0,0-14.07,0-27.83,0-41.58-31.08,0-62.14,0-93.48,0Z"/>
      </g>
      <path class="cls-2" d="M503.84,234.02v-63.77l21.91-22.12h59.43l22.34,22.56v19.96h-28.63v-10.63l-7.59-7.59h-31.23l-7.59,7.59v44.25l7.59,7.59h31.23l7.59-7.59v-10.63h28.63v19.95l-22.34,22.56h-59.43l-21.91-22.12Z"/>
      <path class="cls-2" d="M614.78,233.59v-62.9l22.34-22.56h62.03l22.34,22.56v62.9l-22.34,22.56h-62.03l-22.34-22.56ZM685.27,232.28l7.59-7.59v-45.12l-7.59-7.59h-34.27l-7.59,7.59v45.12l7.59,7.59h34.27Z"/>
      <path class="cls-2" d="M730.39,148.13h26.46v18l18-18h34.92l24.08,24.08v83.94h-28.63v-76.13l-7.37-7.59h-18.22l-20.61,20.82v62.9h-28.63v-108.02Z"/>
      <path class="cls-2" d="M843.82,148.13h26.46v18l18-18h34.92l24.08,24.08v83.94h-28.63v-76.13l-7.37-7.59h-18.22l-20.61,20.82v62.9h-28.63v-108.02Z"/>
      <path class="cls-2" d="M955.09,234.02v-63.33l22.34-22.56h60.95l22.56,22.56v40.99h-77.22v13.88l6.94,7.16h35.35l6.51-6.72v-5.64h28.2v14.1l-21.47,21.69h-62.25l-21.91-22.12ZM1032.31,191.72v-12.58l-7.37-7.59h-33.84l-7.37,7.59v12.58h48.59Z"/>
      <path class="cls-2" d="M1133.6,256.14l-23.86-32.97-23.86,32.97h-32.32l40.34-54.88-39.26-53.14h32.32l22.77,31.67,22.77-31.67h32.32l-39.04,53.57,40.13,54.44h-32.32Z"/>
      <path class="cls-2" d="M1157.46,236.19v-24.73l19.95-19.96h54.88v-13.66l-6.72-6.72h-32.53l-6.51,6.72v6.07h-28.2v-12.36l23.21-23.43h55.74l23.21,23.43v84.59h-25.81v-15.4l-16.05,15.4h-41.21l-19.95-19.95ZM1216.67,234.02l15.62-14.97v-7.16h-40.78l-5.86,5.86v10.84l5.42,5.42h25.59Z"/>
      <path class="cls-2" d="M1252.9,156.22v-11.73l7.21-7.21h13.9l7.21,7.21v11.73l-7.21,7.21h-13.9l-7.21-7.21ZM1272.25,159.62l4.93-4.93v-8.67l-4.93-4.93h-10.38l-4.93,4.93v8.67l4.93,4.93h10.38ZM1259.48,153.53v-6.35l4.18-4.18,6.91-.04,4.15,4.15v2.24h-3.96v-1.08l-1.53-1.53h-3.88l-1.68,1.68v3.88l1.68,1.68h3.88l1.53-1.53v-1.23h3.96v2.35l-4.11,4.15h-6.95l-4.18-4.18Z"/>
    </g>
  </g>
</svg>