<?xml version="1.0" encoding="UTF-8"?>
<svg id="Layer_2" data-name="Layer 2" xmlns="http://www.w3.org/2000/svg" viewBox="0 0 900 900">
  <defs>
    <style>
      .cls-1 {
        fill: #c8f504;
      }

      .cls-2 {
        fill: #1c1c1c;
      }
    </style>
  </defs>
  <g id="Livello_1" data-name="Livello 1">
    <rect class="cls-1" width="900" height="900" rx="104.04" ry="104.04"/>
    <g>
      <path class="cls-2" d="M333.3,321.42c-3.29,0-6.05-.01-8.81,0-44.57.24-89.15.64-133.72.6-8.03,0-11.08,1.65-11.08,10.73,0,35.66.11,71.38.11,107.48,0,8.49,2.33,14.86,8.48,20.97,88.7,88.04,177.13,176.35,265.9,264.32,3.74,3.71,10.15,6.71,15.31,6.7,67.14-.02,134.29-.71,201.43-.98,6.13-.02,7.58-2.21,7.56-7.91-.18-45.98-.22-91.97.04-137.95.04-6.68-1.85-8.58-8.63-8.52-89.15.75-178.3,1.27-267.45,1.69-37.12.18-69.41-34.98-68.84-72.15.91-60.07.38-120.17.43-180.26,0-1.09-.32-2.18-.72-4.73Z"/>
      <path class="cls-2" d="M335.13,167.78c0,52.4,0,102.85,0,153.63,114.38,0,228.5,0,343.38,0,0-51.98,0-102.83,0-153.63-114.16,0-228.25,0-343.38,0Z"/>
    </g>
  </g>
</svg>