<?xml version="1.0" encoding="UTF-8"?>
<svg id="Layer_2" data-name="Layer 2" xmlns="http://www.w3.org/2000/svg" viewBox="0 0 1603.92 260.7">
  <defs>
    <style>
      .cls-1 {
        fill: #c8f504;
      }
    </style>
  </defs>
  <g id="Livello_1" data-name="Livello 1">
    <g>
      <g>
        <path class="cls-1" d="M71.36,70.96c-1.53,0-2.81,0-4.09,0-20.71.11-41.42.3-62.12.28C1.42,71.23,0,72,0,76.2c0,16.47.05,32.97.05,49.64,0,3.92,1.08,6.86,3.94,9.68,41.21,40.67,82.29,81.45,123.53,122.08,1.74,1.71,4.71,3.1,7.11,3.1,31.19,0,62.39-.33,93.58-.45,2.85-.01,3.52-1.02,3.51-3.65-.08-21.24-.1-42.48.02-63.71.02-3.09-.86-3.96-4.01-3.93-41.42.35-82.83.58-124.25.78-17.25.08-32.25-16.16-31.98-33.33.42-27.75.18-55.5.2-83.26,0-.5-.15-1.01-.33-2.18Z"/>
        <path class="cls-1" d="M72.22,0c0,24.2,0,47.5,0,70.96,53.14,0,106.15,0,159.52,0,0-24.01,0-47.49,0-70.96-53.03,0-106.04,0-159.52,0Z"/>
      </g>
      <path d="M277.38,191.32v-108.82l37.38-37.75h101.41l38.12,38.49v34.05h-48.86v-18.14l-12.95-12.95h-53.3l-12.95,12.95v75.51l12.95,12.95h53.3l12.95-12.95v-18.14h48.86v34.05l-38.12,38.49h-101.41l-37.38-37.75Z"/>
      <path d="M466.7,190.58v-107.34l38.12-38.49h105.85l38.12,38.49v107.34l-38.12,38.49h-105.85l-38.12-38.49ZM586.99,188.36l12.95-12.95v-76.99l-12.95-12.95h-58.48l-12.95,12.95v76.99l12.95,12.95h58.48Z"/>
      <path d="M663.97,44.75h45.16v30.72l30.72-30.72h59.59l41.08,41.08v143.24h-48.86V99.16l-12.58-12.95h-31.09l-35.16,35.53v107.34h-48.86V44.75Z"/>
      <path d="M857.54,44.75h45.16v30.72l30.72-30.72h59.59l41.08,41.08v143.24h-48.86V99.16l-12.58-12.95h-31.09l-35.16,35.53v107.34h-48.86V44.75Z"/>
      <path d="M1047.41,191.32v-108.08l38.12-38.49h104l38.49,38.49v69.95h-131.76v23.69l11.84,12.21h60.33l11.1-11.47v-9.62h48.12v24.06l-36.64,37.01h-106.22l-37.38-37.75ZM1179.18,119.15v-21.47l-12.58-12.95h-57.74l-12.58,12.95v21.47h82.91Z"/>
      <path d="M1352.02,229.07l-40.71-56.26-40.71,56.26h-55.15l68.84-93.64-66.99-90.68h55.15l38.86,54.04,38.86-54.04h55.15l-66.62,91.42,68.47,92.9h-55.15Z"/>
      <path d="M1392.74,195.02v-42.19l34.05-34.05h93.64v-23.32l-11.47-11.47h-55.52l-11.1,11.47v10.36h-48.12v-21.1l39.6-39.97h95.12l39.6,39.97v144.35h-44.04v-26.28l-27.39,26.28h-70.32l-34.05-34.05ZM1493.78,191.32l26.65-25.54v-12.21h-69.58l-9.99,9.99v18.51l9.25,9.25h43.67Z"/>
      <path class="cls-1" d="M1555.61,58.56v-20.01l12.3-12.3h23.71l12.3,12.3v20.01l-12.3,12.3h-23.71l-12.3-12.3ZM1588.62,64.36l8.41-8.41v-14.79l-8.41-8.41h-17.72l-8.41,8.41v14.79l8.41,8.41h17.72ZM1566.83,53.97v-10.84l7.14-7.14,11.79-.06,7.08,7.08v3.82h-6.76v-1.85l-2.61-2.61h-6.63l-2.87,2.87v6.63l2.87,2.87h6.63l2.61-2.61v-2.1h6.76v4.02l-7.01,7.08h-11.86l-7.14-7.14Z"/>
    </g>
  </g>
</svg>