<?xml version="1.0" encoding="UTF-8"?>
<svg id="Layer_2" data-name="Layer 2" xmlns="http://www.w3.org/2000/svg" viewBox="0 0 231.74 260.7">
  <defs>
    <style>
      .cls-1 {
        fill: #fff;
      }
    </style>
  </defs>
  <g id="Livello_1" data-name="Livello 1">
    <g>
      <path class="cls-1" d="M71.36,70.96c-1.53,0-2.81,0-4.09,0-20.71.11-41.42.3-62.12.28C1.42,71.23,0,72,0,76.2c0,16.47.05,32.97.05,49.64,0,3.92,1.08,6.86,3.94,9.68,41.21,40.67,82.29,81.45,123.53,122.08,1.74,1.71,4.71,3.1,7.11,3.1,31.19,0,62.39-.33,93.58-.45,2.85-.01,3.52-1.02,3.51-3.65-.08-21.24-.1-42.48.02-63.71.02-3.09-.86-3.96-4.01-3.93-41.42.35-82.83.58-124.25.78-17.25.08-32.25-16.16-31.98-33.33.42-27.75.18-55.5.2-83.26,0-.5-.15-1.01-.33-2.18Z"/>
      <path class="cls-1" d="M72.22,0c0,24.2,0,47.5,0,70.96,53.14,0,106.15,0,159.52,0,0-24.01,0-47.49,0-70.96-53.03,0-106.04,0-159.52,0Z"/>
    </g>
  </g>
</svg>