<svg xmlns="http://www.w3.org/2000/svg" viewBox="0 16 962 150">
<defs><mask id="cuts"><rect x="-10" y="0" width="990" height="200" fill="#fff"/><rect x="192" y="0" width="10" height="240" transform="rotate(45 197 91)" fill="#000"/><rect x="101" y="10" width="32" height="32" transform="rotate(45 117 26)" fill="#000"/><rect x="403" y="11" width="30" height="30" transform="rotate(45 418 26)" fill="#000"/><rect x="552" y="141" width="30" height="30" transform="rotate(45 567 156)" fill="#000"/><rect x="873" y="5" width="34" height="34" transform="rotate(45 890 22)" fill="#000"/></mask></defs>
<path d="M13.6 124.8L13.6 124.8L13.6 57.2Q13.6 22 48.8 22L48.8 22L100.6 22L116.2 34L116.2 53.4L50.6 53.4Q48.4 53.4 48.4 55.6L48.4 55.6L48.4 126.4Q48.4 128.6 50.6 128.6L50.6 128.6L116.2 128.6L116.2 148L100.6 160L48.8 160Q13.6 160 13.6 124.8M139.8 124.8L139.8 124.8L139.8 57.2Q139.8 22 175 22L175 22L219.8 22Q255 22 255 57.2L255 57.2L255 124.8Q255 160 219.8 160L219.8 160L175 160Q139.8 160 139.8 124.8M174.6 55.6L174.6 126.4Q174.6 128.6 176.8 128.6L176.8 128.6L218 128.6Q220.2 128.6 220.2 126.4L220.2 126.4L220.2 55.6Q220.2 53.4 218 53.4L218 53.4L176.8 53.4Q174.6 53.4 174.6 55.6L174.6 55.6M319 160L284.2 160L284.2 22L321.8 22L367.6 102L367.6 22L402.4 22L402.4 160L365 160L319 80L319 160M468.4 160L433.6 160L433.6 22L471.2 22L517 102L517 22L551.8 22L551.8 160L514.4 160L468.4 80L468.4 160M679.6 160L583 160L583 22L679.6 22L679.6 53.4L617.8 53.4L617.8 74L673.6 74L673.6 105.4L617.8 105.4L617.8 128.6L679.6 128.6L679.6 160M698.4 160L695 153.2L737 89L697.6 28.8L700.8 22L731.4 22L756 61L780.6 22L811.2 22L814.4 28.8L775 89L817 153.2L813.6 160L783.2 160L756 117.2L728.8 160L698.4 160M830 160L825.8 153.6L864.8 22L916.8 22L955.8 153.6L951.6 160L922.4 160L915.6 135.4L866 135.4L859.2 160L830 160M889.6 53.4L875.2 104L906.4 104L892 53.4L889.6 53.4" fill="#ffffff" mask="url(#cuts)"/>
</svg>